<svg width="70" height="70" viewBox="0 0 70 70" fill="none" xmlns="http://www.w3.org/2000/svg">
<rect opacity="0.2" width="70" height="70" rx="35" fill="#000001"/>
<g clip-path="url(#clip0_2004_13)">
<rect opacity="0.655535" x="-2.5" y="-2.5" width="74" height="74" rx="37" stroke="#000001"/>
<rect x="7" y="7" width="56" height="56" rx="28" fill="#000001"/>
<path fill-rule="evenodd" clip-rule="evenodd" d="M45.2851 29.5451C45.7399 29.5451 46.1761 29.7232 46.4977 30.0402C46.8193 30.3573 47 30.7872 47 31.2355V40.9468C47 41.3951 46.8193 41.825 46.4977 42.142C46.1761 42.459 45.7399 42.6371 45.2851 42.6371H44.3899V47L40.3153 42.6363H33.8819C33.4271 42.6363 32.9909 42.4582 32.6693 42.1412C32.3477 41.8242 32.167 41.3942 32.167 40.9459V39.3637H40.8041C41.4863 39.3637 42.1406 39.0966 42.623 38.6211C43.1054 38.1456 43.3764 37.5006 43.3764 36.8281V29.5451H45.2851ZM39.6182 23C40.073 23 40.5092 23.1781 40.8308 23.4951C41.1524 23.8121 41.3331 24.2421 41.3331 24.6904V35.4919C41.3331 35.7139 41.2888 35.9337 41.2026 36.1388C41.1164 36.3439 40.9901 36.5302 40.8308 36.6872C40.6716 36.8441 40.4825 36.9687 40.2745 37.0536C40.0664 37.1386 39.8434 37.1823 39.6182 37.1823H32.167L27.0737 42.6363V37.1823H24.7149C24.2601 37.1823 23.8239 37.0042 23.5023 36.6872C23.1807 36.3702 23 35.9402 23 35.4919V24.6904C23 24.2421 23.1807 23.8121 23.5023 23.4951C23.8239 23.1781 24.2601 23 24.7149 23H39.6182Z" fill="white"/>
</g>
<defs>
<clipPath id="clip0_2004_13">
<rect x="7" y="7" width="56" height="56" rx="28" fill="white"/>
</clipPath>
</defs>
</svg>
